<?xml version="1.0" encoding="utf-8"?>
<!-- Generator: Adobe Illustrator 21.1.0, SVG Export Plug-In . SVG Version: 6.00 Build 0)  -->
<svg version="1.1" id="Слой_1" xmlns="http://www.w3.org/2000/svg" xmlns:xlink="http://www.w3.org/1999/xlink" x="0px" y="0px"
	 viewBox="0 0 72.1615 51.0236" style="enable-background:new 0 0 72.1615 51.0236;" xml:space="preserve">
<style type="text/css">
	.st0{fill:#FFFFFF;stroke:#000000;stroke-width:0.2;stroke-miterlimit:10;}
</style>
<path class="st0" d="M50.6266,37.6059H50.405c-0.1026,0-0.1866-0.084-0.1866-0.1866V3.3453c0-0.1026,0.084-0.1866,0.1866-0.1866
	h0.2215c0.1026,0,0.1866,0.084,0.1866,0.1866v34.074C50.8131,37.5219,50.7292,37.6059,50.6266,37.6059z"/>
<g>
	<path class="st0" d="M57.9766,28.1413c0,0.2422-0.3906,1.1357-1.1729,2.6797c-0.7813,1.5449-1.1719,2.7461-1.1719,3.6016
		c0,0.2793,0.0459,0.498,0.1396,0.6563c0.0928,0.1582,0.2598,0.2373,0.502,0.2373c0.2607,0,0.6045-0.1396,1.0332-0.4189
		c0.4277-0.2793,0.6982-0.4189,0.8096-0.4189c0.3164,0,0.4746,0.1582,0.4746,0.4746c0,0.54-0.3906,1.043-1.1729,1.5078
		c-0.6143,0.3535-1.2559,0.6143-1.9258,0.7813c-0.2051,0.0381-0.498,0.1543-0.8799,0.3496s-0.6934,0.293-0.9355,0.293
		c-0.4834,0-0.8887-0.1914-1.2139-0.5723c-0.3262-0.3818-0.4883-0.8242-0.4883-1.3262c0-0.3164,0.0273-0.5957,0.083-0.8379
		c0.0566-0.2412,0.1494-0.5303,0.2793-0.8652l1.8428-4.6338c0.1855-0.4844,0.3486-0.8105,0.4883-0.9775
		c0.1396-0.168,0.4238-0.3252,0.8516-0.4746c0.4277-0.1484,0.8096-0.3252,1.1445-0.5303c0.0371-0.0371,0.168-0.1016,0.3916-0.1953
		c0.2227-0.0938,0.3438-0.1396,0.3623-0.1396c0.2051,0,0.3496,0.0742,0.4326,0.2236
		C57.9346,27.7038,57.9766,27.8992,57.9766,28.1413z M54.9619,25.9636c0-0.1299,0.041-0.2695,0.125-0.4189
		c0.084-0.1484,0.1816-0.2881,0.293-0.4185l0.4189-0.6421c0.0928-0.1675,0.4326-0.3584,1.0195-0.5723
		c0.5859-0.2139,1.0186-0.3213,1.2979-0.3213c0.502,0,0.7539,0.27,0.7539,0.8096c0,0.1494-0.042,0.3306-0.126,0.5444
		c-0.084,0.2144-0.1445,0.3677-0.1816,0.4604c-0.167,0.4097-0.3027,0.6704-0.4043,0.7817
		c-0.1025,0.1118-0.3584,0.2051-0.7676,0.2793c-0.4102,0.0747-0.7725,0.1396-1.0889,0.1953
		c-0.3174,0.0562-0.5684,0.084-0.7539,0.084c-0.2051,0-0.3535-0.0791-0.4473-0.2373
		C55.0078,26.3498,54.9619,26.1687,54.9619,25.9636z"/>
	<path class="st0" d="M62.1641,34.1433c0,0.3535,0.1113,0.6426,0.335,0.8652c0.2227,0.2236,0.5205,0.335,0.8936,0.335
		c0.335,0,0.7158-0.0742,1.1445-0.2227c0.7256-0.2607,1.0977-0.3916,1.1162-0.3916l0.3906,0.1963l0.168,0.3906
		c-0.2422,0.7256-0.9209,1.3496-2.0381,1.8701c-0.9863,0.4648-1.9082,0.6982-2.7637,0.6982c-0.8193,0-1.4795-0.3164-1.9824-0.9492
		c-0.502-0.6328-0.7539-1.377-0.7539-2.2334c0-0.3164,0.168-0.8838,0.5029-1.7031c0.2412-0.5957,0.4932-1.1904,0.7539-1.7871
		c-0.1865,0-0.373,0-0.5586,0c-0.2236-0.0371-0.3818-0.1484-0.4746-0.335c0.0928-0.3525,0.3906-0.707,0.8936-1.0605
		c0.6885-0.4834,1.0742-0.7764,1.1582-0.8789s0.1631-0.2285,0.2373-0.377c0.0742-0.1494,0.1299-0.2607,0.168-0.335
		c0.2969-0.6328,0.5859-1.2383,0.8652-1.8149c0.5762-1.1729,0.9863-1.833,1.2285-1.9824c0.0742-0.0371,0.2559-0.0928,0.5439-0.1675
		c0.2881-0.0742,0.5068-0.1484,0.6563-0.2231c0.2793-0.1489,0.4375-0.2324,0.4746-0.2515c0.1855-0.0742,0.3633-0.1113,0.5303-0.1113
		c0.2793,0,0.4648,0.1255,0.5586,0.3765c0.0928,0.2515,0.1396,0.5542,0.1396,0.9077c0,0.1113-0.0654,0.2788-0.1953,0.5024
		c-0.1309,0.2231-0.252,0.4282-0.3633,0.6143l-1.3955,2.7075c0.3906,0,0.7207,0.0146,0.9912,0.042
		c0.2695,0.0283,0.5254,0.0977,0.7676,0.21l0.1396,0.418c0,0.3916-0.2197,0.7959-0.6563,1.2148
		c-0.4375,0.4189-0.8516,0.6279-1.2422,0.6279H63.085c-0.335,0.6895-0.5723,1.2568-0.7119,1.7031S62.1641,33.8269,62.1641,34.1433z"
		/>
	<path class="st0" d="M68.1221,35.8347c0.043,0.0635,0.083,0.1963,0.1201,0.3984s0.0557,0.3672,0.0557,0.4951
		c0,0.085-0.1094,0.2305-0.3271,0.4385c-0.2178,0.207-0.3799,0.3379-0.4863,0.3906l-0.7334,0.1914
		c-0.1602,0-0.293-0.1113-0.3994-0.335s-0.1592-0.4248-0.1592-0.6064c0-0.2441,0.1836-0.5391,0.5498-0.8848
		c0.3672-0.3457,0.6621-0.5186,0.8857-0.5186c0.0635,0,0.1543,0.0586,0.2715,0.1748
		C67.9199,35.6003,67.9951,35.6853,68.1221,35.8347z"/>
</g>
<g>
	<path class="st0" d="M50.7344,48.7761c0-0.1855-0.0068-0.335-0.0127-0.4727h0.2363l0.0117,0.248h0.0068
		c0.1074-0.1768,0.2773-0.2813,0.5137-0.2813c0.3506,0,0.6133,0.2959,0.6133,0.7354c0,0.5205-0.3164,0.7783-0.6582,0.7783
		c-0.1914,0-0.3584-0.084-0.4453-0.2275h-0.0059v0.7861h-0.2598V48.7761z M50.9941,49.1618c0,0.0381,0.0059,0.0742,0.0117,0.1074
		c0.0479,0.1826,0.207,0.3076,0.3955,0.3076c0.2773,0,0.4395-0.2266,0.4395-0.5586c0-0.29-0.1523-0.5391-0.4307-0.5391
		c-0.1797,0-0.3477,0.1289-0.3984,0.3262c-0.0088,0.0332-0.0176,0.0723-0.0176,0.1074V49.1618z"/>
	<path class="st0" d="M52.4326,47.6277h0.2627V48.53h0.0059c0.042-0.0742,0.1074-0.1396,0.1885-0.1846
		c0.0781-0.0449,0.1709-0.0752,0.2695-0.0752c0.1943,0,0.5049,0.1201,0.5049,0.6191v0.8613h-0.2627v-0.8311
		c0-0.2334-0.0869-0.4307-0.335-0.4307c-0.1709,0-0.3057,0.1191-0.3535,0.2627c-0.0146,0.0361-0.0176,0.0752-0.0176,0.126v0.873
		h-0.2627V47.6277z"/>
	<path class="st0" d="M55.3994,49.0154c0,0.5352-0.3711,0.7686-0.7207,0.7686c-0.3916,0-0.6943-0.2871-0.6943-0.7451
		c0-0.4844,0.3174-0.7686,0.7178-0.7686C55.1182,48.2702,55.3994,48.572,55.3994,49.0154z M54.251,49.03
		c0,0.3174,0.1826,0.5566,0.4395,0.5566c0.251,0,0.4395-0.2363,0.4395-0.5625c0-0.2451-0.1221-0.5566-0.4336-0.5566
		C54.3857,48.4675,54.251,48.7546,54.251,49.03z"/>
	<path class="st0" d="M56.0449,47.8874v0.416h0.377v0.2002h-0.377v0.7803c0,0.1797,0.0508,0.2813,0.1973,0.2813
		c0.0693,0,0.1201-0.0088,0.1533-0.0176l0.0117,0.1973c-0.0508,0.0205-0.1318,0.0361-0.2334,0.0361
		c-0.123,0-0.2217-0.0391-0.2842-0.1113c-0.0752-0.0771-0.1016-0.2061-0.1016-0.377v-0.7891h-0.2246v-0.2002h0.2246v-0.3477
		L56.0449,47.8874z"/>
	<path class="st0" d="M58.0088,49.0154c0,0.5352-0.3711,0.7686-0.7207,0.7686c-0.3916,0-0.6943-0.2871-0.6943-0.7451
		c0-0.4844,0.3174-0.7686,0.7178-0.7686C57.7275,48.2702,58.0088,48.572,58.0088,49.0154z M56.8603,49.03
		c0,0.3174,0.1826,0.5566,0.4395,0.5566c0.251,0,0.4395-0.2363,0.4395-0.5625c0-0.2451-0.1221-0.5566-0.4336-0.5566
		C56.9951,48.4675,56.8603,48.7546,56.8603,49.03z"/>
	<path class="st0" d="M59.585,48.3035c-0.0059,0.1045-0.0127,0.2207-0.0127,0.3975v0.8408c0,0.332-0.0654,0.5352-0.2061,0.6602
		c-0.1406,0.1318-0.3438,0.1738-0.5264,0.1738c-0.1738,0-0.3652-0.042-0.4814-0.1191l0.0654-0.2012
		c0.0957,0.0605,0.2451,0.1143,0.4248,0.1143c0.2695,0,0.4668-0.1406,0.4668-0.5059v-0.1611h-0.0059
		c-0.0811,0.1348-0.2363,0.2422-0.4609,0.2422c-0.3584,0-0.6162-0.3047-0.6162-0.7061c0-0.4902,0.3203-0.7686,0.6523-0.7686
		c0.251,0,0.3887,0.1318,0.4512,0.251h0.0068l0.0117-0.2178H59.585z M59.3125,48.8747c0-0.0449-0.0029-0.084-0.0146-0.1201
		c-0.0479-0.1523-0.1768-0.2783-0.3682-0.2783c-0.251,0-0.4307,0.2129-0.4307,0.5479c0,0.2842,0.1436,0.5205,0.4277,0.5205
		c0.1611,0,0.3076-0.1016,0.3652-0.2695c0.0146-0.0449,0.0205-0.0957,0.0205-0.1406V48.8747z"/>
	<path class="st0" d="M59.9893,48.7546c0-0.1699-0.0039-0.3164-0.0127-0.4512h0.2305l0.0088,0.2842h0.0127
		c0.0654-0.1943,0.2236-0.3174,0.4004-0.3174c0.0303,0,0.0508,0.0029,0.0752,0.0088v0.248
		c-0.0273-0.0059-0.0547-0.0088-0.0898-0.0088c-0.1855,0-0.3174,0.1406-0.3535,0.3379c-0.0059,0.0361-0.0117,0.0781-0.0117,0.123
		v0.7715h-0.2598V48.7546z"/>
	<path class="st0" d="M61.751,49.7507l-0.0205-0.1826h-0.0088c-0.0811,0.1143-0.2363,0.2158-0.4434,0.2158
		c-0.293,0-0.4424-0.207-0.4424-0.416c0-0.3496,0.3115-0.541,0.8701-0.5381v-0.0303c0-0.1191-0.0322-0.335-0.3281-0.335
		c-0.1348,0-0.2754,0.042-0.377,0.1074l-0.0605-0.1729c0.1201-0.0781,0.293-0.1289,0.4756-0.1289
		c0.4434,0,0.5508,0.3018,0.5508,0.5918v0.542c0,0.125,0.0059,0.248,0.0234,0.3467H61.751z M61.7119,49.0124
		c-0.2871-0.0068-0.6123,0.0449-0.6123,0.3252c0,0.1709,0.1133,0.252,0.248,0.252c0.1885,0,0.3076-0.1201,0.3496-0.2422
		c0.0088-0.0273,0.0146-0.0576,0.0146-0.084V49.0124z"/>
	<path class="st0" d="M62.3896,48.7761c0-0.1855-0.0068-0.335-0.0127-0.4727h0.2363l0.0127,0.248h0.0059
		c0.1074-0.1768,0.2773-0.2813,0.5137-0.2813c0.3506,0,0.6133,0.2959,0.6133,0.7354c0,0.5205-0.3164,0.7783-0.6582,0.7783
		c-0.1914,0-0.3584-0.084-0.4453-0.2275h-0.0059v0.7861h-0.2598V48.7761z M62.6494,49.1618c0,0.0381,0.0059,0.0742,0.0117,0.1074
		c0.0479,0.1826,0.207,0.3076,0.3945,0.3076c0.2783,0,0.4404-0.2266,0.4404-0.5586c0-0.29-0.1533-0.5391-0.4307-0.5391
		c-0.1797,0-0.3477,0.1289-0.3984,0.3262c-0.0088,0.0332-0.0176,0.0723-0.0176,0.1074V49.1618z"/>
	<path class="st0" d="M64.0879,47.6277h0.2627V48.53h0.0059c0.042-0.0742,0.1074-0.1396,0.1885-0.1846
		c0.0781-0.0449,0.1709-0.0752,0.2695-0.0752c0.1943,0,0.5049,0.1201,0.5049,0.6191v0.8613h-0.2627v-0.8311
		c0-0.2334-0.0869-0.4307-0.335-0.4307c-0.1709,0-0.3057,0.1191-0.3535,0.2627c-0.0146,0.0361-0.0176,0.0752-0.0176,0.126v0.873
		h-0.2627V47.6277z"/>
	<path class="st0" d="M65.8916,49.0749c0.0059,0.3555,0.2324,0.502,0.4961,0.502c0.1885,0,0.3018-0.0322,0.4004-0.0742
		l0.0449,0.1885c-0.0928,0.042-0.251,0.0898-0.4814,0.0898c-0.4453,0-0.7119-0.2939-0.7119-0.7305s0.2578-0.7803,0.6797-0.7803
		c0.4717,0,0.5977,0.416,0.5977,0.6816c0,0.0537-0.0059,0.0957-0.0088,0.123H65.8916z M66.6631,48.8865
		c0.0029-0.168-0.0693-0.4277-0.3652-0.4277c-0.2656,0-0.3828,0.2451-0.4033,0.4277H66.6631z"/>
	<path class="st0" d="M67.2412,48.7546c0-0.1699-0.0039-0.3164-0.0127-0.4512h0.2305l0.0088,0.2842h0.0127
		c0.0654-0.1943,0.2236-0.3174,0.4004-0.3174c0.0303,0,0.0508,0.0029,0.0752,0.0088v0.248
		c-0.0273-0.0059-0.0547-0.0088-0.0898-0.0088c-0.1855,0-0.3174,0.1406-0.3535,0.3379c-0.0059,0.0361-0.0117,0.0781-0.0117,0.123
		v0.7715h-0.2598V48.7546z"/>
</g>
<g>
	<path class="st0" d="M6.4014,40.4831c-0.3223,0-0.6538,0.0391-0.9951,0.1182c-1.0117,0.2373-1.5337,0.3564-1.5654,0.3564
		l-0.126-0.1094c0.1416-0.2988,0.6475-0.5811,1.5171-0.8486c0.7539-0.2314,1.3628-0.3467,1.8267-0.3467
		c1.1143,0,2.103,0.2246,2.9663,0.6748c1.0498,0.5479,1.5752,1.3105,1.5752,2.29c0,1.0029-0.6313,1.8848-1.894,2.6455
		c-1.1274,0.6748-2.2578,1.0127-3.3916,1.0127c-0.0903,0-0.2178-0.084-0.3818-0.251c-0.1641-0.168-0.2656-0.2939-0.3042-0.3789
		c0.0967-0.5527,0.2705-1.1279,0.5215-1.7236c0.187-0.4443,0.4575-0.9854,0.812-1.624c0.2959-0.5293,0.5957-1.0615,0.8984-1.5967
		c-0.2446-0.0664-0.4912-0.1201-0.7393-0.1592C6.873,40.5027,6.6333,40.4831,6.4014,40.4831z M7.0874,44.8074
		c0,0.3955,0.209,0.5928,0.6279,0.5928c0.6831,0,1.3174-0.207,1.9038-0.6201c0.644-0.4502,0.9663-0.9883,0.9663-1.6152
		c0-0.5049-0.2065-0.9453-0.6187-1.3223c-0.2705-0.25-0.7085-0.5205-1.314-0.8125c-0.6572,1.2109-0.9893,1.8223-0.9951,1.834
		C7.2773,43.655,7.0874,44.3025,7.0874,44.8074z"/>
	<path class="st0" d="M14.8945,46.5857l0.0869,0.0459l0.0391,0.1006c0,0.3281-0.1821,0.6914-0.5464,1.0898
		c-0.3638,0.3984-0.7197,0.6309-1.0674,0.6982c-0.103-0.0488-0.1919-0.1523-0.2656-0.3105
		c-0.0742-0.1582-0.1113-0.3008-0.1113-0.4287c0-0.2129,0.0903-0.584,0.2705-1.1133c0.1353-0.3955,0.3252-0.8936,0.5703-1.4961
		c0.1543-0.3643,0.3091-0.7324,0.4639-1.1035c-0.1807,0.1943-0.3516,0.417-0.5122,0.666c-0.1353,0.207-0.2739,0.4502-0.4155,0.7295
		c-0.0518,0.0918-0.103,0.1797-0.1548,0.2646c-0.0708,0.043-0.1772,0.0898-0.3188,0.1416s-0.2417,0.0771-0.2993,0.0771
		c-0.1548,0-0.2598-0.0908-0.3145-0.2734s-0.082-0.4131-0.082-0.6934c0-0.0791,0-0.1553,0-0.2275
		c0-0.0732,0.0034-0.1406,0.0098-0.2012c0-0.0967-0.0015-0.1963-0.0049-0.2959c-0.0034-0.1006-0.0049-0.2061-0.0049-0.3154
		c0-0.584,0.0903-0.9941,0.2705-1.2314c0.1548-0.2061,0.3994-0.3438,0.7344-0.4102c0.1934,0.0547,0.29,0.1729,0.29,0.3555
		c0,0.1396-0.0225,0.335-0.0679,0.584c-0.1094,0.6084-0.1641,0.9912-0.1641,1.1494v0.374c0.5542-0.8086,0.8633-1.2529,0.9277-1.332
		c0.4766-0.584,0.895-0.876,1.2559-0.876c0.1934,0,0.29,0.0791,0.29,0.2373c0,0.1162-0.1416,0.502-0.4253,1.1592
		c-0.2832,0.6563-0.5669,1.3135-0.8501,1.9697c-0.3286,0.7969-0.5283,1.375-0.5991,1.7334c0.2124-0.085,0.3799-0.2158,0.5024-0.3916
		C14.685,46.8357,14.8496,46.6101,14.8945,46.5857z"/>
	<path class="st0" d="M15.9189,45.9929l-0.145-0.0732l-0.0674-0.1641c0.0254-0.1094,0.0464-0.1943,0.0625-0.2549
		s0.0498-0.1553,0.1016-0.2832l0.9761-2.4443c0.064-0.1768,0.2607-0.6309,0.5894-1.3643c0.3286-0.7324,0.5151-1.127,0.5605-1.1816
		c0.0898-0.0967,0.2368-0.2051,0.4395-0.3232c0.2031-0.1191,0.3784-0.2021,0.5269-0.251c0.0771,0.0547,0.1431,0.1152,0.1978,0.1826
		c0.0547,0.0664,0.105,0.1514,0.1499,0.2549c-0.0132,0.1094-0.1318,0.376-0.3574,0.7988c-0.2256,0.4219-0.4541,0.8467-0.686,1.2725
		c-0.2837,0.5225-0.4771,0.8965-0.5801,1.1221c0.3994-0.3105,0.7153-0.541,0.9473-0.6934c0.4185-0.2803,0.7759-0.4199,1.0723-0.4199
		c0.1675,0,0.2964,0.0703,0.3867,0.21c0.0708,0.1152,0.1064,0.2588,0.1064,0.4287c0,0.1826-0.2017,0.4824-0.604,0.8984
		c-0.4028,0.417-0.6748,0.625-0.8164,0.625c-0.0327-0.0117-0.063-0.0244-0.0918-0.0361c-0.0293-0.0127-0.0532-0.0244-0.0728-0.0371
		l-0.0771-0.1367c0.0254-0.1035,0.124-0.2344,0.2944-0.3926c0.1709-0.1572,0.2563-0.2979,0.2563-0.4189l-0.0771-0.1738
		l-0.1743-0.0723c-0.1675,0.0361-0.3252,0.0938-0.4731,0.1729c-0.1484,0.0791-0.2964,0.1797-0.4448,0.3008
		c0.1289,0.0127,0.2319,0.0488,0.3096,0.1094c0.0967,0.4746,0.2026,0.8027,0.3188,0.9854c0.1929,0.3105,0.5024,0.4658,0.9272,0.4658
		l0.2031-0.0273c0.0835-0.0674,0.145-0.1162,0.1836-0.1465c0.0771-0.0605,0.145-0.1006,0.2031-0.1182l0.1157,0.0635
		c0.0195,0.0488,0.0386,0.0977,0.0581,0.1465c0,0.1699-0.229,0.3799-0.686,0.6289c-0.4253,0.2314-0.7407,0.3467-0.9473,0.3467
		c-0.4121,0-0.728-0.2275-0.9468-0.6836c-0.1226-0.2617-0.2319-0.6572-0.3286-1.1865c-0.1543,0.3955-0.3091,0.7881-0.4639,1.1768
		C16.6787,45.6404,16.3633,45.8708,15.9189,45.9929z"/>
	<path class="st0" d="M23.3306,46.5857l0.0869,0.0459l0.0391,0.1006c0,0.3281-0.1821,0.6914-0.5464,1.0898
		c-0.3638,0.3984-0.7197,0.6309-1.0674,0.6982c-0.103-0.0488-0.1919-0.1523-0.2656-0.3105
		c-0.0742-0.1582-0.1113-0.3008-0.1113-0.4287c0-0.2129,0.0903-0.584,0.2705-1.1133c0.1353-0.3955,0.3252-0.8936,0.5703-1.4961
		c0.1543-0.3643,0.3091-0.7324,0.4639-1.1035c-0.1807,0.1943-0.3516,0.417-0.5122,0.666c-0.1353,0.207-0.2739,0.4502-0.4155,0.7295
		c-0.0518,0.0918-0.103,0.1797-0.1548,0.2646c-0.0708,0.043-0.1772,0.0898-0.3188,0.1416s-0.2417,0.0771-0.2993,0.0771
		c-0.1548,0-0.2598-0.0908-0.3145-0.2734s-0.082-0.4131-0.082-0.6934c0-0.0791,0-0.1553,0-0.2275
		c0-0.0732,0.0034-0.1406,0.0098-0.2012c0-0.0967-0.0015-0.1963-0.0049-0.2959c-0.0034-0.1006-0.0049-0.2061-0.0049-0.3154
		c0-0.584,0.0903-0.9941,0.2705-1.2314c0.1548-0.2061,0.3994-0.3438,0.7344-0.4102c0.1934,0.0547,0.29,0.1729,0.29,0.3555
		c0,0.1396-0.0225,0.335-0.0679,0.584c-0.1094,0.6084-0.1641,0.9912-0.1641,1.1494v0.374c0.5542-0.8086,0.8633-1.2529,0.9277-1.332
		c0.4766-0.584,0.895-0.876,1.2559-0.876c0.1934,0,0.29,0.0791,0.29,0.2373c0,0.1162-0.1416,0.502-0.4253,1.1592
		c-0.2832,0.6563-0.5669,1.3135-0.8501,1.9697c-0.3286,0.7969-0.5283,1.375-0.5991,1.7334c0.2124-0.085,0.3799-0.2158,0.5024-0.3916
		C23.1211,46.8357,23.2856,46.6101,23.3306,46.5857z"/>
	<path class="st0" d="M26.2778,42.7634c0,0.0791-0.1353,0.3711-0.4058,0.876s-0.4058,0.8975-0.4058,1.1768
		c0,0.0908,0.0156,0.1631,0.0483,0.2148c0.0322,0.0518,0.0898,0.0771,0.1738,0.0771c0.0898,0,0.209-0.0459,0.3574-0.1367
		c0.1479-0.0918,0.2417-0.1367,0.2803-0.1367c0.1094,0,0.1641,0.0518,0.1641,0.1553c0,0.1758-0.1353,0.3398-0.4058,0.4922
		c-0.2124,0.1152-0.4346,0.2012-0.6665,0.2559c-0.0713,0.0117-0.1724,0.0498-0.3047,0.1133
		c-0.1318,0.0645-0.2397,0.0957-0.3237,0.0957c-0.1675,0-0.3076-0.0625-0.4199-0.1865c-0.1128-0.125-0.1694-0.2695-0.1694-0.4336
		c0-0.1035,0.0098-0.1943,0.0293-0.2734c0.019-0.0791,0.0513-0.1738,0.0967-0.2832l0.6377-1.5137
		c0.064-0.1582,0.1206-0.2646,0.1689-0.3193s0.1465-0.1064,0.2949-0.1553c0.1479-0.0488,0.2798-0.1064,0.396-0.1738
		c0.0127-0.0117,0.0581-0.0332,0.1353-0.0635s0.1191-0.0459,0.1255-0.0459c0.0708,0,0.1211,0.0244,0.1499,0.0732
		S26.2778,42.6843,26.2778,42.7634z M25.2344,42.0525c0-0.043,0.0142-0.0889,0.0435-0.1377
		c0.0288-0.0479,0.0625-0.0938,0.1016-0.1367l0.1445-0.209c0.0322-0.0557,0.1499-0.1172,0.353-0.1875
		c0.2026-0.0703,0.3525-0.1045,0.4492-0.1045c0.1738,0,0.2607,0.0879,0.2607,0.2637c0,0.0488-0.0142,0.1084-0.0435,0.1787
		c-0.0288,0.0693-0.0498,0.1201-0.0625,0.1504c-0.0581,0.1338-0.105,0.2188-0.1401,0.2549
		c-0.0356,0.0371-0.124,0.0674-0.2661,0.0918c-0.1416,0.0244-0.2671,0.0449-0.3765,0.0635
		c-0.1099,0.0186-0.1968,0.0273-0.2612,0.0273c-0.0708,0-0.1221-0.0254-0.1543-0.0771S25.2344,42.1189,25.2344,42.0525z"/>
	<path class="st0" d="M33.7856,39.6531l-0.0967,0.2275c-0.4771,0.2803-0.9536,0.5596-1.4302,0.8398
		c-0.3477,0.377-0.522,0.9033-0.522,1.5781c0,0.7539,0.2788,1.415,0.8359,1.9844c0.5571,0.5684,1.2285,0.8525,2.0146,0.8525
		c0.7925,0,1.459-0.4043,2.0005-1.2129c0.4829-0.7178,0.7246-1.4785,0.7246-2.2813c0-0.4258-0.1611-0.7383-0.4834-0.9395
		c-0.2705-0.1699-0.644-0.2549-1.1206-0.2549c-0.7729,0-1.3818,0.1064-1.8262,0.3184c-0.2773,0.1348-0.5591,0.3643-0.8457,0.6895
		s-0.5269,0.5361-0.7197,0.6338l-0.145-0.1553c0-0.6143,0.4409-1.168,1.3237-1.6602c0.7988-0.4434,1.5684-0.666,2.3096-0.666
		c0.6313,0,1.1401,0.1914,1.5269,0.5752c0.3857,0.3828,0.5791,0.8789,0.5791,1.4863c0,0.9854-0.377,1.9766-1.1299,2.9746
		c-0.8184,1.0879-1.7266,1.6328-2.7251,1.6328c-0.8765,0-1.6719-0.3984-2.3867-1.1953c-0.6831-0.7598-1.0244-1.5625-1.0244-2.4082
		c0-0.6504,0.3223-1.3291,0.9663-2.0342c0.6699-0.7305,1.3433-1.0947,2.0195-1.0947L33.7856,39.6531z"/>
	<path class="st0" d="M41.168,40.5017l0.0479,0.1182c0,0.1826-0.1348,0.5547-0.4053,1.1172
		c-0.2715,0.5625-0.5352,1.1152-0.793,1.6563c-0.2832,0.626-0.4248,1.0703-0.4248,1.332c0,0.042,0.0049,0.0742,0.0146,0.0957
		c0.0088,0.0215,0.0303,0.0557,0.0625,0.1045l0.1934,0.082c0.1416,0,0.2861-0.0488,0.4346-0.1455
		c0.2129-0.1396,0.4287-0.2832,0.6475-0.4287l0.1064,0.0547l0.0479,0.1367c0,0.2246-0.2539,0.502-0.7627,0.8301
		c-0.5098,0.3281-0.8896,0.4922-1.1406,0.4922c-0.0391,0-0.1865-0.0771-0.4443-0.2324s-0.3867-0.251-0.3867-0.2871
		c0-0.4561,0.1162-0.9766,0.3477-1.5596c0.2129-0.4805,0.4258-0.9609,0.6377-1.4414c0.2383-0.5596,0.3574-1.0225,0.3574-1.3867
		c0.0459-0.0674,0.248-0.1777,0.6094-0.333c0.3604-0.1553,0.6084-0.2422,0.7441-0.2598L41.168,40.5017z"/>
	<path class="st0" d="M43.333,45.4822c0.083,0,0.1738-0.0146,0.2705-0.0459c0.2832-0.0908,0.4316-0.1367,0.4443-0.1367
		l0.1445,0.0459l0.0488,0.1182c0,0.1523-0.1875,0.2891-0.5605,0.4111c-0.3027,0.0967-0.5605,0.1455-0.7734,0.1455
		c-0.0967,0-0.166-0.0049-0.207-0.0137c-0.042-0.0088-0.1826-0.0498-0.4209-0.123c-0.2773-0.0732-0.5537-0.1455-0.8311-0.2188
		c-0.2129-0.1035-0.3184-0.3408-0.3184-0.7119c0-0.541,0.3184-1.1123,0.9561-1.7148s1.2471-0.9033,1.8262-0.9033
		c0.168,0,0.2979,0.0566,0.3916,0.1689s0.1406,0.2539,0.1406,0.4238c0,0.165-0.0117,0.2881-0.0342,0.3701
		s-0.0625,0.1592-0.1211,0.2324c-0.1152,0.2246-0.2285,0.4502-0.3379,0.6748c-0.1934,0.2314-0.4063,0.4258-0.6377,0.584
		c-0.2324,0.1582-0.4902,0.2676-0.7734,0.3281C42.7656,45.3601,43.0303,45.4822,43.333,45.4822z M42.5019,44.406
		c0,0.1035,0.0381,0.1553,0.1152,0.1553c0.1484,0,0.377-0.1738,0.6865-0.5205s0.4639-0.6143,0.4639-0.8027
		c0-0.1211-0.0488-0.1826-0.1445-0.1826c-0.2197,0-0.4609,0.1719-0.7256,0.5156C42.6338,43.9148,42.5019,44.1931,42.5019,44.406z"/>
	<path class="st0" d="M44.8496,45.9929l-0.1445-0.0732l-0.0684-0.1641c0.0264-0.1094,0.0469-0.1943,0.0635-0.2549
		c0.0156-0.0605,0.0498-0.1553,0.1006-0.2832l0.9766-2.4443c0.0645-0.1768,0.2607-0.6309,0.5889-1.3643
		c0.3291-0.7324,0.5156-1.127,0.5605-1.1816c0.0908-0.0967,0.2373-0.2051,0.4404-0.3232c0.2021-0.1191,0.3779-0.2021,0.5264-0.251
		c0.0771,0.0547,0.1436,0.1152,0.1982,0.1826c0.0547,0.0664,0.1045,0.1514,0.1494,0.2549c-0.0127,0.1094-0.1318,0.376-0.3574,0.7988
		c-0.2256,0.4219-0.4541,0.8467-0.6865,1.2725c-0.2832,0.5225-0.4766,0.8965-0.5791,1.1221
		c0.3994-0.3105,0.7148-0.541,0.9463-0.6934c0.4189-0.2803,0.7764-0.4199,1.0732-0.4199c0.167,0,0.2959,0.0703,0.3867,0.21
		c0.0703,0.1152,0.1055,0.2588,0.1055,0.4287c0,0.1826-0.2012,0.4824-0.6035,0.8984c-0.4023,0.417-0.6748,0.625-0.8164,0.625
		c-0.0322-0.0117-0.0625-0.0244-0.0918-0.0361c-0.0293-0.0127-0.0537-0.0244-0.0723-0.0371l-0.0781-0.1367
		c0.0264-0.1035,0.124-0.2344,0.2949-0.3926c0.1709-0.1572,0.2559-0.2979,0.2559-0.4189l-0.0771-0.1738l-0.1738-0.0723
		c-0.167,0.0361-0.3252,0.0938-0.4736,0.1729c-0.1475,0.0791-0.2959,0.1797-0.4443,0.3008
		c0.1289,0.0127,0.2324,0.0488,0.3096,0.1094c0.0967,0.4746,0.2031,0.8027,0.3184,0.9854c0.1934,0.3105,0.5029,0.4658,0.9277,0.4658
		l0.2031-0.0273c0.084-0.0674,0.1445-0.1162,0.1836-0.1465c0.0771-0.0605,0.1445-0.1006,0.2031-0.1182l0.1162,0.0635
		c0.0186,0.0488,0.0381,0.0977,0.0576,0.1465c0,0.1699-0.2285,0.3799-0.6865,0.6289c-0.4248,0.2314-0.7402,0.3467-0.9463,0.3467
		c-0.4131,0-0.7285-0.2275-0.9473-0.6836c-0.1221-0.2617-0.2314-0.6572-0.3281-1.1865c-0.1553,0.3955-0.3096,0.7881-0.4639,1.1768
		C45.6094,45.6404,45.2939,45.8708,44.8496,45.9929z"/>
	<path class="st0" d="M51.2646,43.238c0.168,0.2617,0.3174,0.5059,0.4502,0.7344c0.1318,0.2285,0.1973,0.4395,0.1973,0.6338
		c0,0.3955-0.2188,0.7266-0.6563,0.9941c-0.3867,0.2373-0.8027,0.3564-1.2471,0.3564c-0.2061,0-0.3867-0.0273-0.541-0.082
		c-0.2256-0.0791-0.3379-0.1982-0.3379-0.3564c0-0.1455,0.082-0.3193,0.2461-0.5195c0.1641-0.2012,0.3203-0.3008,0.4688-0.3008
		c0.1289,0,0.2588,0.1074,0.3916,0.3232c0.1318,0.2158,0.249,0.3242,0.3525,0.3242c0.0771,0,0.1162-0.0488,0.1162-0.1465
		c0-0.3643-0.1133-0.7051-0.3389-1.0215s-0.3379-0.5225-0.3379-0.6201c0-0.2188,0.2178-0.5029,0.6523-0.8525
		c0.4346-0.3506,0.7773-0.5254,1.0293-0.5254c0.0967,0,0.1934,0.0244,0.29,0.0732c0.0957,0.0488,0.1445,0.1162,0.1445,0.2012
		c0,0.1885-0.0195,0.3438-0.0576,0.4648c-0.0586,0.1943-0.165,0.292-0.3193,0.292c-0.0967,0-0.1768-0.0166-0.2412-0.0498
		c-0.0645-0.0342-0.1328-0.0869-0.2031-0.1602C51.2842,43.0857,51.2646,43.1648,51.2646,43.238z"/>
	<path class="st0" d="M52.5986,45.9568c-0.1357,0-0.2383-0.0723-0.3096-0.2148s-0.1064-0.29-0.1064-0.4424
		c0-0.4922,0.4434-1.0898,1.3291-1.792c0.8857-0.7031,1.6084-1.0537,2.1689-1.0537c0.1865,0,0.374,0.0332,0.5605,0.0996
		c0.251,0.0918,0.377,0.207,0.377,0.3467c0,0.207-0.1064,0.6055-0.3184,1.1953c-0.2129,0.5898-0.3193,1.0488-0.3193,1.3779
		c0,0.0547,0.0176,0.1289,0.0527,0.2236c0.0361,0.0938,0.0566,0.165,0.0635,0.2139c-0.0195,0.0674-0.0586,0.1289-0.1162,0.1875
		c-0.0576,0.0576-0.1221,0.0859-0.1934,0.0859c-0.0576,0-0.1514-0.0078-0.2803-0.0225c-0.1289-0.0156-0.2158-0.0225-0.2607-0.0225
		c-0.1289,0-0.2158-0.0947-0.2607-0.2832s-0.0674-0.4131-0.0674-0.6748c0-0.0732,0-0.1396,0-0.2012
		c0-0.0605,0.0029-0.1152,0.0088-0.1641c-0.2637,0.335-0.6104,0.6084-1.0381,0.8213C53.46,45.8503,53.0303,45.9568,52.5986,45.9568z
		 M53.5449,45.1267c0,0.0664,0.0293,0.0996,0.0879,0.0996c0.2441,0,0.6563-0.3037,1.2363-0.9121
		c0.5801-0.6074,0.8701-1.0273,0.8701-1.2588c0-0.042-0.0361-0.0635-0.1064-0.0635c-0.2773,0-0.6943,0.2842-1.252,0.8525
		C53.8242,44.4138,53.5449,44.8406,53.5449,45.1267z"/>
	<path class="st0" d="M60.2422,42.4714c0.167,0,0.2861,0.0674,0.3574,0.2012c0.0518,0.0977,0.0771,0.2344,0.0771,0.4102
		c0,0.2314-0.0645,0.5596-0.1934,0.9854S60.29,44.8103,60.29,45.0173c0,0.0303,0.0293,0.085,0.0869,0.1641
		c0.0586,0.0791,0.0869,0.1338,0.0869,0.1641c0,0.0977-0.1416,0.2207-0.4248,0.3691c-0.2832,0.1494-0.4893,0.2236-0.6182,0.2236
		c-0.1357,0-0.2275-0.0732-0.2754-0.2188c-0.0488-0.1465-0.0723-0.3037-0.0723-0.4746c0-0.1885,0.0449-0.4014,0.1348-0.6387
		c0.251-0.6504,0.3799-1.0029,0.3867-1.0576l-0.0391-0.0645c-0.0576,0-0.2637,0.2314-0.6182,0.6934
		c-0.3926,0.5107-0.7861,1.0215-1.1787,1.5332c-0.2002,0.0791-0.3965,0.1572-0.5898,0.2363
		c-0.0322-0.0176-0.0918-0.0684-0.1787-0.1504s-0.1299-0.1377-0.1299-0.1689c0-0.1455,0.1318-0.6309,0.3955-1.4541
		c0.2646-0.8242,0.4443-1.2939,0.541-1.4102c0.0137-0.0176,0.1143-0.0713,0.3047-0.1592s0.2949-0.1328,0.3145-0.1328
		c0.0703,0,0.1416,0.0176,0.2119,0.0508c0.0713,0.0332,0.1387,0.0771,0.2031,0.1318c0.0195,0.0488,0.0391,0.0977,0.0586,0.1465
		c0,0.0547-0.0557,0.1816-0.165,0.3828c-0.1475,0.2676-0.2256,0.4102-0.2314,0.4287l-0.3291,0.748
		c0.29-0.3467,0.583-0.6963,0.8799-1.0488C59.5654,42.7517,59.9648,42.4714,60.2422,42.4714z"/>
	<path class="st0" d="M61.4307,40.364c0.0518-0.0967,0.1934-0.1924,0.4248-0.2871c0.2324-0.0938,0.4219-0.1416,0.5703-0.1416
		c0.6055,0,1.1143,0.3193,1.5264,0.958c0.3613,0.5596,0.542,1.1377,0.542,1.7334c0,0.7363-0.248,1.4541-0.7441,2.1533
		c-0.5605,0.7842-1.2148,1.1768-1.9619,1.1768c-0.2383,0-0.4297-0.082-0.5752-0.2461c-0.1445-0.165-0.2168-0.3623-0.2168-0.5938
		c0-0.6387,0.2471-1.1885,0.7441-1.6504c0.3604-0.335,0.9111-0.666,1.6523-0.9951c-0.2393-0.6504-0.5381-1.1367-0.8994-1.459
		C62.1387,40.7995,61.7851,40.5837,61.4307,40.364z M62.1748,44.8982c0,0.1035,0.0176,0.1768,0.0527,0.2188
		c0.0352,0.043,0.1084,0.0645,0.2178,0.0645c0.3281,0,0.6084-0.207,0.8408-0.6201c0.1992-0.3535,0.2988-0.7031,0.2988-1.0498
		c0-0.0908-0.0029-0.1621-0.0088-0.2139c-0.0068-0.0518-0.0293-0.1748-0.0684-0.3701c-0.3281,0.2373-0.6182,0.5264-0.8691,0.8672
		C62.3291,44.2077,62.1748,44.5759,62.1748,44.8982z"/>
	<path class="st0" d="M65.1221,43.53c-0.084,0-0.1553-0.0137-0.2129-0.041c-0.0586-0.0273-0.0869-0.0781-0.0869-0.1504
		c0-0.1465,0.1064-0.2617,0.3184-0.3467c0.1416-0.0547,0.3125-0.0977,0.5127-0.1279c0.0381,0,0.0996-0.0244,0.1836-0.0732
		c0.083-0.0479,0.1543-0.0723,0.2119-0.0723c0.1104,0,0.1807,0.0527,0.2129,0.1592s0.0488,0.2266,0.0488,0.3604
		c0,0.1523-0.0244,0.3389-0.0732,0.5615c-0.0479,0.2217-0.0752,0.3477-0.082,0.3779l0.0391,0.0547
		c0.0195-0.0117,0.0703-0.0791,0.1543-0.2002c0.2129-0.3047,0.3291-0.4688,0.3477-0.4932
		c-0.0254-0.0664-0.0449-0.1338-0.0576-0.2002c-0.0127-0.0674-0.0195-0.1426-0.0195-0.2285c0-0.2305,0.0322-0.4023,0.0967-0.5156
		c0.0645-0.1123,0.2002-0.2256,0.4063-0.3418c0.0898-0.0547,0.1611-0.0967,0.2119-0.1279c0.1104-0.0605,0.1807-0.0908,0.2129-0.0908
		c0.084,0,0.1689,0.0732,0.2559,0.2188c0.0869,0.1465,0.1309,0.2646,0.1309,0.3555c0,0.0313-0.042,0.1221-0.126,0.2744
		c-0.084,0.1514-0.125,0.2793-0.125,0.3828c0,0.0732,0.0371,0.1504,0.1104,0.2324c0.0742,0.082,0.1113,0.2119,0.1113,0.3877
		c0,0.0791-0.0791,0.1543-0.2363,0.2236c-0.1582,0.0703-0.2852,0.1055-0.3818,0.1055c-0.0576,0-0.1143-0.0264-0.1689-0.0781
		s-0.1045-0.1143-0.1504-0.1865c-0.3027,0.498-0.5439,0.8906-0.7246,1.1768c-0.3477,0.541-0.6855,0.8115-1.0146,0.8115
		c-0.1025,0-0.2285-0.0762-0.377-0.2275c-0.1475-0.1523-0.2217-0.2744-0.2217-0.3652c0.1094-0.1094,0.1895-0.1943,0.2412-0.2559
		c0.1738-0.1943,0.2793-0.3389,0.3145-0.4326c0.0352-0.0947,0.0625-0.209,0.082-0.3428s0.0293-0.2578,0.0293-0.374L65.2861,43.53
		H65.1221z"/>
</g>
<path class="st0" d="M22.8701,13.1812c-0.0015-0.2649-0.0052-0.9677-0.0063-1.4568c-0.0001-0.0567-0.0003-0.1372-0.0003-0.1596
	c-0.0003-0.2611,0.0003-0.4932,0.0003-1.4765c0-0.5649,0-0.8473,0-0.8473c-0.0003-0.0218-0.0013-0.0835,0-0.1663
	c0.0011-0.0659,0.0041-0.1759,0.0157-0.3259c0.0101-0.1315,0.0218-0.2828,0.0502-0.4498c0.0348-0.2045,0.0831-0.3662,0.1663-0.6062
	c0.1581-0.4558,0.2371-0.6837,0.3829-0.994c0.1028-0.2188,0.3097-0.6535,0.6685-1.1342c0.1043-0.1398,0.561-0.7384,1.3495-1.3004
	c0.7264-0.5177,1.3772-0.7498,1.6257-0.8311c0,0,0.6233-0.2038,1.271-0.2575c0.1153-0.0095,0.371-0.0173,0.4425-0.013
	c0.0289,0.0017,0.0458,0.0064,0.0816,0.0033c0.0408-0.0036,0.0669-0.0141,0.0785,0c0.0053,0.0065,0.0041,0.0139,0.0031,0.0358
	c-0.001,0.0239,0.0014,0.0479,0,0.0718c-0.0066,0.1149,0,0.2303,0,0.3454c0,0.2586,0,0.5172,0,0.7758c0,0.8452,0,1.6904,0,2.5356
	c0,0.9256,0,1.8511,0,2.7767c0,0.6007,0,1.2015,0,1.8022c0,0.0402-0.0003,0.0804,0,0.1206c0.0007,0.0859,0.0025,0.1064,0,0.1537
	c-0.0032,0.0609-0.0048,0.0913-0.0157,0.1266c-0.0042,0.0136-0.0205,0.0629-0.0785,0.1304
	c-0.0489,0.0569-0.0971,0.0915-0.1883,0.1499c-0.0921,0.059-0.1382,0.0885-0.1914,0.1173c-0.1224,0.0663-0.2479,0.1517-0.499,0.3226
	c-0.2292,0.156-0.3884,0.2812-0.6277,0.4693c-0.1971,0.155-0.3416,0.2761-0.6308,0.5182c-0.247,0.2068-0.3705,0.3102-0.477,0.4074
	c-0.2376,0.2168-0.4041,0.3932-0.5429,0.541c-0.1075,0.1144-0.3652,0.3929-0.6747,0.7789c-0.1189,0.1482-0.3606,0.456-0.6434,0.8702
	c-0.3644,0.5338-0.6147,0.9774-0.7344,1.1961c-0.0776,0.1418-0.3298,0.6085-0.6057,1.2482
	c-0.0675,0.1565-0.2325,0.5463-0.4143,1.0657c-0.1018,0.2909-0.2007,0.6213-0.295,0.9288c0,0-0.0492,0.1529-0.1193,0.3944
	c0,0-0.02,0.069-0.0377,0.1369c-0.0103,0.0395-0.0154,0.0592-0.0159,0.0628c-0.002,0.0148-0.0019,0.0237-0.0061,0.0251
	c-0.0096,0.0033-0.03-0.0354-0.0408-0.0554c-0.0271-0.0502-0.0618-0.0958-0.0879-0.1467c-0.0541-0.1056-0.2184-0.3397-0.2887-0.44
	c-0.2736-0.39-0.5632-0.7171-0.6183-0.7789c-0.1594-0.1791-0.3661-0.4097-0.6653-0.6714c-0.4135-0.3615-0.78-0.5866-0.9415-0.6812
	c-0.6726-0.3939-1.2524-0.5526-1.6006-0.6453c-0.7279-0.1938-1.3069-0.2241-1.497-0.2314c-0.8785-0.0335-1.5527,0.1177-1.8328,0.189
	c-0.4065,0.1035-0.8847,0.2685-1.3903,0.5345c-0.6125,0.3222-1.0227,0.6652-1.2459,0.8539
	c-0.1626,0.1375-0.3752,0.3187-0.6245,0.5964c-0.3302,0.3679-0.5333,0.6919-0.6904,0.9451c-0.146,0.2353-0.3171,0.511-0.4864,0.9093
	c-0.1893,0.4451-0.2735,0.8009-0.3546,1.1439c-0.1282,0.542-0.172,0.951-0.182,1.0494c-0.008,0.0782-0.037,0.3748-0.0408,0.7691
	c-0.0012,0.1276-0.0028,0.3288,0.0126,0.5638c0.0401,0.6158,0.1726,1.1043,0.2479,1.3493c0.1246,0.4052,0.2619,0.6937,0.3546,0.8865
	c0.3262,0.6784,0.6943,1.1715,0.9321,1.4601c0.2036,0.2471,0.5794,0.6972,1.1863,1.1374c0.4005,0.2905,0.7395,0.459,0.9792,0.5769
	c0.2773,0.1363,0.7196,0.3507,1.3401,0.5052c0.165,0.0411,0.6782,0.1615,1.362,0.1793c0.5127,0.0133,0.9431-0.0356,1.2553-0.088
	c0.2084-0.035,0.7506-0.1363,1.4154-0.4041c0.3013-0.1214,0.7269-0.2957,1.224-0.6388c0.5059-0.3491,0.8327-0.6982,1.0702-0.9549
	c0.4252-0.4596,0.6868-0.8548,0.7438-0.9419c0.1055-0.1613,0.4806-0.7465,0.6967-1.3884c0.0813-0.2416,0.1506-0.5149,0.1506-0.5149
	c0.0604-0.2382,0.0961-0.4289,0.1099-0.5052c0.0359-0.1992,0.0292-0.2107,0.0722-0.453c0.0063-0.0358,0.0228-0.1278,0.0377-0.251
	c0.0066-0.0552,0.0121-0.1001,0.0157-0.1597c0.0061-0.1001,0.0022-0.159,0-0.2674c-0.0015-0.0735,0.0001-0.0538,0-0.2707
	c-0.0003-0.5046-0.0092-0.5233,0-0.6973c0.0082-0.1565,0.0223-0.2735,0.0345-0.3746c0.0224-0.1862,0.0376-0.2471,0.0879-0.5475
	c0.0586-0.3505,0.055-0.3699,0.1098-0.6877c0.0264-0.1528,0.0488-0.2828,0.0785-0.4302c0.069-0.3424,0.1398-0.5931,0.2197-0.8734
	c0.0709-0.2487,0.1562-0.5462,0.295-0.9354c0.0385-0.108,0.1681-0.4667,0.3703-0.9256c0.09-0.2043,0.1875-0.4243,0.3358-0.7072
	c0.1428-0.2724,0.2567-0.4581,0.4394-0.7561c0.1612-0.2629,0.3043-0.4963,0.5178-0.8017c0.0721-0.1031,0.2658-0.377,0.5398-0.717
	c0.343-0.4257,0.626-0.7243,0.6936-0.7952c0.0822-0.0863,0.381-0.3971,0.8097-0.7724c0.2594-0.2271,0.6253-0.5294,1.0859-0.8539
	c0.549-0.3869,0.9969-0.6393,1.1612-0.73c0.1916-0.1059,0.6078-0.329,1.1643-0.5638c0.1686-0.0712,0.7489-0.3117,1.5503-0.5378
	c0.3398-0.0958,0.9072-0.2538,1.6602-0.3618c0.9569-0.1373,1.7739-0.1309,2.3569-0.0945c1.0901,0.068,1.8943,0.274,2.4416,0.4172
	c0.5907,0.1545,1.445,0.3831,2.4887,0.9028c0.2996,0.1492,1.0883,0.5581,2.0023,1.2645c0.2149,0.1661,0.9727,0.7629,1.8171,1.7143
	c0.3233,0.3643,0.8842,1.0026,1.4593,1.962c0.1317,0.2196,0.4785,0.8138,0.8254,1.6393c0.3147,0.7489,0.4951,1.3684,0.5837,1.698
	c0.223,0.8288,0.317,1.5012,0.3578,1.8447c0.0774,0.6519,0.0861,1.1542,0.091,1.4959c0.005,0.3438,0.0103,0.7987-0.0408,1.3949
	c-0.0593,0.6915-0.1632,1.2073-0.2416,1.5904c-0.0805,0.393-0.1875,0.9077-0.4049,1.5676c-0.0817,0.2481-0.291,0.8566-0.6559,1.6002
	c-0.0799,0.1628-0.3701,0.7453-0.8379,1.4568c-0.395,0.6008-0.7358,1.0184-0.8285,1.1309
	c-0.3642,0.4419-0.6683,0.7476-0.8725,0.9517c-0.2449,0.2448-0.6057,0.6034-1.1267,1.0168c-0.1399,0.111-0.612,0.4805-1.2836,0.8865
	c-0.3092,0.1869-0.8378,0.4886-1.5284,0.7887c-0.2676,0.1163-0.7033,0.2948-1.2553,0.4693
	c-0.2922,0.0924-0.6599,0.2074-1.1581,0.3064c-0.4669,0.0927-0.8184,0.1256-1.1832,0.1597
	c-0.3393,0.0317-0.7522,0.0589-1.224,0.0652c-0.4253,0.0057-0.9312,0.0107-1.5911-0.0619c-0.1276-0.014-0.7-0.0793-1.4468-0.2575
	c-0.8041-0.1918-1.394-0.4151-1.5598-0.4791c-0.3456-0.1334-0.9735-0.3948-1.7136-0.8278
	c-0.1834-0.1073-0.7504-0.4455-1.4028-0.9582c-0.5489-0.4313-1.0068-0.8669-1.2114-1.0625
	c-0.0489-0.0467-0.0847-0.0815-0.0847-0.0815c-0.0203-0.0207-0.0306-0.0322-0.0555-0.0576
	c-0.0241-0.0247-0.0415-0.0381-0.0669-0.0662c-0.0109-0.0121-0.0195-0.0224-0.0251-0.0293
	c0.0253-0.0259,0.0599-0.0615,0.1004-0.1043c0.0072-0.0077,0.1061-0.1122,0.182-0.1988c0.0749-0.0853,0.1498-0.1787,0.2511-0.3161
	c0.3093-0.42,0.5617-0.8245,0.5617-0.8245c0.2207-0.3536,0.3721-0.6328,0.5273-0.9191c0.1218-0.2247,0.1884-0.3569,0.2071-0.3944
	c0.048-0.0957,0.1703-0.3429,0.3138-0.6779c0.0796-0.1859,0.1313-0.3183,0.2322-0.5769c0.0961-0.2463,0.1442-0.3695,0.2071-0.5475
	c0.1025-0.29,0.1736-0.5251,0.2134-0.6616c0.078-0.2674,0.1291-0.4766,0.1507-0.5671c0.0344-0.1442,0.0614-0.2693,0.0816-0.3683
	c0.0201,0.026,0.0507,0.0657,0.0879,0.1141c0.1497,0.1948,0.2369,0.3084,0.3138,0.4139c0.1117,0.1534,0.1098,0.1638,0.2322,0.3389
	c0.0812,0.1161,0.2209,0.3149,0.4017,0.5312c0.04,0.0478,0.2073,0.2464,0.4551,0.4856c0.4797,0.4631,0.9175,0.7471,1.089,0.8539
	c0.1284,0.0799,0.3856,0.2337,0.7312,0.3911c0.6792,0.3093,1.2483,0.4273,1.5033,0.4726c0.3725,0.0662,0.6587,0.0811,0.8662,0.0913
	c0.2724,0.0133,0.7093,0.0325,1.2679-0.0424c0.6422-0.0861,1.1218-0.253,1.3181-0.3259c0.1427-0.053,0.5378-0.2061,1.0121-0.4872
	c0.2016-0.1195,0.5195-0.3226,0.8756-0.6209c0.3013-0.2523,0.5087-0.4712,0.6496-0.6209c0.1866-0.1982,0.355-0.377,0.5461-0.6404
	c0.2872-0.396,0.4486-0.7391,0.5885-1.0364c0.1486-0.3159,0.2548-0.5946,0.3295-0.8115c0.0698-0.2029,0.1687-0.4934,0.2495-0.8897
	c0.0173-0.0849,0.0748-0.3758,0.1083-0.7675c0.0499-0.5842,0.0163-1.0408,0-1.2222c-0.0496-0.5526-0.1563-0.9852-0.226-1.2319
	c-0.0276-0.0978-0.1603-0.5592-0.4331-1.1293c-0.238-0.4974-0.4722-0.8468-0.5555-0.968c-0.2676-0.3895-0.5167-0.6659-0.6496-0.8066
	c-0.3156-0.3342-0.5856-0.5494-0.7626-0.6893c-0.2787-0.2204-0.5767-0.4534-1.0168-0.6746c-0.2696-0.1355-0.4798-0.21-0.6873-0.2835
	c-0.2409-0.0854-0.6465-0.227-1.1957-0.3178c-0.218-0.036-0.7438-0.1112-1.4217-0.0733c-0.2093,0.0117-0.6032,0.0437-1.0874,0.1516
	c-0.1855,0.0413-0.4839,0.1091-0.8615,0.2542c-0.0733,0.0282-0.3376,0.1316-0.6685,0.308
	c-0.0596,0.0318-0.3291,0.1767-0.6685,0.4106c-0.1387,0.0956-0.3557,0.2462-0.612,0.4693
	c-0.3857,0.3359-0.6363,0.6411-0.7909,0.8311c-0.3348,0.4116-0.5443,0.7577-0.6026,0.8555
	c-0.2395,0.4019-0.3797,0.7316-0.4566,0.9142c-0.1002,0.2378-0.1499,0.3891-0.1648,0.4351
	c-0.0705,0.218-0.1082,0.3893-0.1553,0.6062c-0.0317,0.1458-0.0685,0.3165-0.1036,0.5475
	c-0.0261,0.1719-0.0649,0.4335-0.0753,0.7773c-0.0014,0.0449-0.0008,0.1456,0,0.3471c0.0019,0.4454,0.0088,0.504,0,0.691
	c-0.006,0.1268-0.0165,0.2322-0.0377,0.4431c-0.0135,0.1352-0.0326,0.3258-0.0659,0.5573
	c-0.0413,0.2873-0.0844,0.4983-0.1318,0.7284c-0.0453,0.2199-0.0925,0.4489-0.1695,0.7382
	c-0.0609,0.2288-0.1277,0.4327-0.2589,0.8311c-0.158,0.4799-0.237,0.7198-0.3437,0.9826c-0.1123,0.2768-0.2066,0.4713-0.3248,0.7137
	c-0.1368,0.2805-0.3451,0.7054-0.6591,1.2271c-0.1784,0.2963-0.4412,0.7298-0.8474,1.2466
	c-0.3897,0.4959-0.7228,0.8286-1.0357,1.1391c-0.6079,0.6032-1.1183,1.0095-1.2899,1.144
	c-0.3019,0.2366-0.7974,0.6218-1.5111,1.0315c-0.2721,0.1562-0.8729,0.4865-1.69,0.7969c-0.2125,0.0807-0.9376,0.3492-1.9254,0.5524
	c-0.7223,0.1486-1.3075,0.2052-1.6382,0.2298c-0.6178,0.0459-1.0992,0.0362-1.3134,0.0293
	c-0.2134-0.0068-0.828-0.0323-1.6194-0.1613c-0.2443-0.0398-0.6332-0.1104-1.1063-0.2298
	c-0.2912-0.0735-0.6691-0.1688-1.1392-0.3422c-0.5316-0.1961-0.9016-0.3888-1.5723-0.7382c-0.4095-0.2133-0.6143-0.32-0.8756-0.484
	c-0.5163-0.324-0.8774-0.6244-1.1298-0.836c-0.3998-0.3351-0.6732-0.6075-0.9698-0.9044c-0.3902-0.3906-0.7119-0.7127-1.0969-1.1928
	c-0.1205-0.1502-0.5098-0.6435-0.9368-1.3542c-0.4076-0.6783-0.6531-1.228-0.7956-1.5497c-0.1556-0.3515-0.3712-0.8427-0.579-1.5253
	c-0.0922-0.3028-0.2381-0.8247-0.3531-1.491c-0.0305-0.1765-0.1107-0.6646-0.1554-1.3102
	c-0.0525-0.7596-0.0279-1.3366-0.0094-1.7404c0.0202-0.4414,0.0425-0.929,0.1459-1.579c0.0458-0.2876,0.1496-0.8722,0.3672-1.5937
	c0.1859-0.6164,0.374-1.0648,0.4943-1.3493c0.1362-0.3222,0.3323-0.7817,0.6543-1.3493c0.3385-0.5964,0.6466-1.0134,0.9038-1.359
	c0.1818-0.2443,0.4922-0.6591,0.9415-1.1488c0.6832-0.7447,1.296-1.2369,1.5676-1.447c0.1388-0.1074,0.6655-0.5103,1.4217-0.9484
	c0.9617-0.5572,1.7572-0.8602,2.0525-0.968c0.872-0.3182,1.5738-0.4636,1.8595-0.5182c0.2198-0.042,0.977-0.1803,1.9913-0.2053
	c1.3398-0.0331,2.3607,0.1503,2.7162,0.22c0.2798,0.0548,1.1194,0.2296,2.0854,0.6062c0.0934,0.0364,0.5491,0.2155,1.0639,0.4742
	c0,0,0.2151,0.1081,0.7061,0.3862c0.1007,0.057,0.1339,0.0792,0.1601,0.0978c0.0332,0.0236,0.0691,0.0515,0.1318,0.0929
	c0.0255,0.0168,0.0468,0.0302,0.0612,0.0391L22.8701,13.1812z"/>
</svg>
